PathFileType	4	(X/Y/Z)	OpenSim_Sub08_CSBaseline_Accel.trc
DataRate	CameraRate	NumFrames	NumMarkers	Units	OrigDataRate	OrigDataStartFrame	OrigNumFrames
100	100	23	8	m	100	2731	5461
Frame#	Time	torso_imu_offset_imu	pelvis_imu_offset_imu	tibia_r_imu_offset_imu	femur_r_imu_offset_imu	tibia_l_imu_offset_imu	femur_l_imu_offset_imu	toes_r_imu_offset_imu	toes_l_imu_offset_imu
				X1	Y1	Z1	X2	Y2	Z2	X3	Y3	Z3	X4	Y4	Z4	X5	Y5	Z5	X6	Y6	Z6	X7	Y7	Z7	X8		Y8	Z8	

2731	27.30000000	9.62651100	-0.35763200	6.38559700	10.10718600	0.88666600	3.01570900	10.78671200	1.64423200	-0.54997800	9.77109100	-2.87173900	-0.70522300	9.66182600	3.10790900	0.86884600	8.56228100	5.51367700	2.30518500	4.98939000	-1.56782700	8.97271200	16.87624200	-2.10745000	-4.43533700
2732	27.31000000	9.71451300	-0.48956900	6.36160600	9.99710800	0.82728300	2.90133600	10.53073800	1.43043200	-0.68415100	9.70504200	-2.70129100	-0.62399800	9.22243400	2.15370900	0.11970200	8.93970600	5.37384000	2.27260000	5.53990400	-1.49173100	8.59495000	16.72024500	-3.46248000	-4.85459600
2733	27.32000000	9.78974800	-0.55057500	6.42540300	9.86817000	0.84337700	2.78307700	10.42082900	1.32839900	-1.14543500	9.68337700	-2.38740900	-0.67601500	9.00620900	0.16415800	-0.61218900	9.05529500	5.56752300	2.43393700	5.23599100	-1.56125600	8.79266800	16.29116700	-3.40404500	-3.81985600
2734	27.33000000	9.85314500	-0.61555800	6.38812600	9.67291900	1.00918900	2.42949800	10.68820500	1.08848200	-0.96591900	9.65273000	-1.85698400	-0.77550100	8.61460700	-2.17552100	-1.57055800	8.51101200	6.14591800	2.49526500	5.10684400	-1.97943800	8.64642700	16.03631800	-2.51781000	-1.79108800
2735	27.34000000	9.75079800	-0.69117800	6.42183400	9.59896000	1.30418200	2.05340900	10.72450100	0.86094400	-0.91023200	9.60525900	-1.61585000	-0.83996700	8.47584600	-3.58881100	-2.26914500	7.60513300	6.44455100	2.53748100	5.01975600	-2.16529700	8.61589400	15.37402600	-1.80185900	0.33856900
2736	27.35000000	9.66326200	-0.75709100	6.48561100	9.58860400	1.68373100	1.68065600	10.62263300	0.99932100	-0.82893300	9.66098600	-1.50989100	-0.76275000	8.48953300	-4.45543600	-1.93901200	7.02427200	6.30627100	2.58020900	5.05434600	-2.20472900	8.42318300	10.62559900	-1.16306100	2.67362600
2737	27.36000000	9.43386200	-0.82325000	6.42195700	9.75341800	2.12966900	1.56946200	10.50445400	1.26683200	-0.53587800	9.61580700	-1.63617400	-0.55816100	8.50756500	-5.69608600	-0.86280500	6.68560500	5.88083600	2.32714300	5.07471700	-1.96825500	8.49510000	-1.60201300	4.92780600	19.98317700
2738	27.37000000	9.46758400	-0.73258000	6.46886300	9.91154200	2.45212100	1.59010200	10.66704500	1.65468100	-0.09429000	9.47687100	-1.80977300	-0.26905100	8.95586800	-6.65450700	-0.54246900	7.62316700	4.82459100	1.88979800	4.79999300	-2.06208300	8.60801800	2.57905100	0.64801000	16.81061800
2739	27.38000000	9.87433100	-0.54849800	6.56452500	10.13120400	2.46216900	1.90347600	10.82513400	1.66413700	0.06160400	9.52546000	-2.11505000	-0.07402200	9.99844000	-2.94136400	0.72263000	9.32425300	3.63159800	1.54047300	4.52048500	-2.40490000	8.51398900	-2.72633200	-9.28840700	11.70207500
2740	27.39000000	10.33867800	-0.36659000	6.60880400	10.33871000	1.95955000	2.31689900	11.21596300	1.25026900	0.40701300	9.75812100	-2.14627700	0.28543800	11.56030700	4.87417400	4.67042600	10.80808800	2.88388200	1.13544900	4.49268100	-2.29109400	8.41660400	-1.97429800	-3.36527600	7.91743700
2741	27.40000000	10.45184300	-0.22783800	6.49060300	10.56334200	1.35344100	2.93158500	11.94401600	0.75816400	0.85053400	10.26563600	-1.91637400	0.64225300	11.74534300	10.61717600	8.76906100	11.26498700	1.60334200	1.20719300	4.28376900	-2.36089800	8.35988200	5.92127800	-0.67286900	14.48598700
2742	27.41000000	10.14681100	-0.35487900	6.42912800	11.02272900	0.67959500	3.31665200	12.91035600	0.69831600	1.59122400	10.51150500	-1.70630800	0.73046000	10.38213900	11.68147000	9.18194200	12.12376900	0.87294700	1.36416000	4.32368900	-2.65942800	8.22803500	11.87496200	-7.34294200	11.54528000
2743	27.42000000	10.34275700	-0.41079700	6.48422000	11.42732700	0.00559200	3.98943000	13.78242100	0.79464100	1.90790300	10.21322400	-1.64653000	0.49959100	11.68476700	7.32692900	7.88446300	12.73427500	2.04127600	2.47175400	4.79811000	-2.06429400	8.54978300	10.46115400	1.39151700	15.46592800
2744	27.43000000	11.06400700	-0.27582200	6.60125100	11.79342300	-0.71523300	5.09957300	14.50089700	0.15276800	2.48158600	9.72416100	-1.58953500	0.29612600	15.85543200	0.58561500	6.75133800	15.48018000	4.83379400	4.14948800	4.89564400	-1.95685000	8.91121400	11.49623300	-1.95416600	14.35437300
2745	27.44000000	11.82612200	-0.06449700	6.78405300	11.81752000	-1.50056400	6.14983800	14.95817600	-1.65825700	2.40935900	9.27108600	-1.56231700	0.32320900	15.89196000	-3.08571800	3.71804300	15.32407500	8.19230800	4.02663500	5.50385700	-2.16464900	8.54222000	13.01061300	-0.26337500	14.49627400
2746	27.45000000	11.70595500	-0.00814500	6.91937000	11.33424700	-1.99503400	6.54173800	15.37120700	-3.45684800	2.17086300	9.36821200	-1.32727200	0.77749700	12.85525500	-1.27368100	0.97094800	12.23175500	10.06970200	2.07527400	4.88683500	-2.78590600	9.40602200	9.22540100	1.21666000	11.93367800
2747	27.46000000	10.37253300	-0.00280900	6.80019200	10.33773700	-1.74172500	6.65018500	15.55554400	-4.74876900	1.58933000	9.57751500	-0.85366100	1.18743500	10.18729100	0.45968500	-1.91582100	8.92792000	8.72661500	-0.20984700	6.51881400	-3.55970900	9.21338700	13.60064400	9.29125600	13.50281400
2748	27.47000000	8.84156800	0.01463800	6.83055400	9.14541500	-0.52970600	6.53266900	15.26993500	-4.60248900	-0.14971500	9.69132400	-0.11082500	1.44537600	7.56786300	-1.87786700	-6.20337500	7.66054000	4.50054500	-1.50673300	7.79639700	-3.91453200	9.88229300	11.75798400	12.38492600	14.27634800
2749	27.48000000	8.00774700	0.19274800	6.81135500	7.77619400	1.00090600	5.97838200	14.70668200	-3.75340100	-1.82545700	9.91390900	0.88566000	1.92224200	8.21093600	-5.23752600	-8.05713800	7.84453800	0.30543200	-2.01557900	12.69394000	-4.83237800	10.12137900	3.35904300	-3.67227100	8.37134500
2750	27.49000000	7.55592000	0.52745400	6.66241700	6.63525600	2.34485900	5.65665000	13.59493400	-2.98752500	-3.37830700	10.26300900	1.77533900	2.22528200	8.70359500	-6.89123300	-7.27386100	7.89267900	-2.67480200	-2.04240200	15.49733500	-5.07583900	10.44880500	6.37500700	4.51178200	12.31999700
2751	27.50000000	7.39953500	0.83057800	6.46518500	5.97956100	3.26743200	5.30675500	12.44604900	-1.28284900	-4.08926900	10.67111400	2.26081700	2.10253600	8.75058800	-4.70322400	-5.10045300	7.63212100	-4.70251700	-2.14070700	17.73344700	-3.00707500	10.67001700	5.52368300	5.41334300	11.28992300
2752	27.51000000	7.48078000	0.96332700	6.11812100	6.02199000	3.61206100	5.28294800	11.47149300	1.11655700	-3.48264700	11.10129800	2.31324600	2.15145100	8.74677800	-1.19539200	-1.65590400	7.84892600	-5.71745500	-3.00940700	17.61215000	-3.45669700	9.90381300	6.36333000	0.99032900	11.25053100
2753	27.52000000	7.95740600	0.96304300	5.97368000	6.65814800	2.97995600	5.59811200	10.77743000	3.98007000	-2.27658900	11.65294400	2.13894100	2.25360700	9.29718100	2.15100800	-0.34948500	8.28849700	-4.00021700	-4.64690600	14.61690100	-4.66567900	9.36318700	6.21250500	0.59380500	10.88917500
